<svg width="360" height="964" viewBox="0 0 360 964" fill="none" xmlns="http://www.w3.org/2000/svg">
<path opacity="0.75" d="M294.274 323.487C202.319 349.714 120 292.489 0 344.486V964C0 964 27.3859 937.998 176.266 939.498C325.145 940.998 360 914 360 914C360 689.187 359.502 178.497 359.502 178.497C314.689 144.999 304.232 178.497 213.658 128C208.657 135.15 211.419 186.618 283.071 224.75C353.758 262.369 350.441 307.467 294.274 323.487Z" fill="url(#paint0_linear_245_589)" fill-opacity="0.3"/>
<g clip-path="url(#clip0_245_589)">
<path d="M178.032 156.885C178.416 156.501 179.993 127.284 179.993 127.284L154.081 100.785L153.392 134.848L178.032 156.885Z" fill="#FFEDDF"/>
<path d="M170.437 145.023C164.964 139.994 150.853 127.912 141.833 126.403C143.148 135.446 154.905 149.831 159.808 155.417C161.459 157.307 163.307 159.015 165.32 160.513L181.227 172.245C183.942 172.625 187.107 169.542 186.784 166.813L175.404 150.651C173.954 148.603 172.289 146.716 170.437 145.023Z" fill="url(#paint1_linear_245_589)"/>
<path d="M180.187 167.092C179.299 167.923 178.351 168.689 177.353 169.384L181.173 172.21C183.888 172.59 187.052 169.507 186.729 166.778L183.888 162.742C182.965 164.401 181.573 165.831 180.187 167.092Z" fill="#222222"/>
<path opacity="0.12" d="M153.737 117.815L179.368 138.396L178.997 144.583L153.695 119.874L153.737 117.815Z" fill="#222222"/>
<path d="M231.284 104.816C230.9 105.2 201.64 106.118 201.64 106.118L175.73 79.6197L209.81 79.6846L231.284 104.816Z" fill="#FFEDDF"/>
<path d="M219.599 96.9517C214.696 91.368 202.939 76.9831 201.624 67.9377C210.637 69.4535 224.755 81.5316 230.228 86.5569C232.081 88.2489 233.748 90.1345 235.2 92.1815L246.577 108.342C246.902 111.069 243.743 114.158 241.03 113.766L225.11 102.049C223.096 100.551 221.249 98.8425 219.599 96.9517Z" fill="url(#paint2_linear_245_589)"/>
<path d="M241.452 107.189C242.304 106.317 243.092 105.386 243.811 104.403L246.548 108.292C246.871 111.021 243.712 114.11 240.992 113.725L237.021 110.796C238.691 109.908 240.154 108.552 241.452 107.189Z" fill="#222222"/>
<path opacity="0.12" d="M192.776 79.6451L212.776 105.731L218.97 105.499L194.834 79.6495L192.776 79.6451Z" fill="#222222"/>
<path d="M199.384 139.976L203.517 144.202L220.895 127.207L216.762 122.981L199.384 139.976Z" fill="#FFEDDF"/>
<path d="M226.336 129.511L205.476 149.907L202.605 144.447L220.941 126.519L226.336 129.511Z" fill="#5E889F"/>
<path d="M174.523 57.2146C161.688 46.8922 146.51 39.4197 130.618 35.1827C124.566 33.57 116.161 32.5185 110.478 33.241C109.621 38.9115 110.484 47.3365 111.961 53.4236C115.843 69.403 122.971 84.7455 132.999 97.8121C143.668 111.705 158.148 121.273 171.267 132.594L190.608 149.285L207.651 132.623L224.7 115.956C219.278 109.39 213.86 102.824 208.447 96.2587C197.415 82.8811 188.182 68.1841 174.523 57.2146Z" fill="url(#paint3_linear_245_589)"/>
<path d="M229.242 129.039L205.17 152.577C205.14 152.606 205.105 152.63 205.066 152.645C205.027 152.661 204.985 152.669 204.943 152.668C204.902 152.668 204.86 152.659 204.822 152.642C204.783 152.626 204.749 152.601 204.72 152.571L203.704 151.533C203.645 151.473 203.613 151.392 203.613 151.308C203.614 151.224 203.648 151.143 203.708 151.084L227.782 127.545C227.812 127.515 227.847 127.492 227.886 127.477C227.925 127.461 227.967 127.454 228.008 127.454C228.05 127.455 228.091 127.464 228.13 127.48C228.168 127.497 228.203 127.52 228.232 127.55L229.248 128.589C229.277 128.619 229.3 128.654 229.316 128.693C229.331 128.732 229.339 128.773 229.339 128.815C229.338 128.857 229.329 128.898 229.313 128.936C229.296 128.975 229.272 129.01 229.242 129.039Z" fill="#222222"/>
<path opacity="0.15" d="M199.756 140.344L217.136 123.352L219.89 126.168L200.528 141.133L199.756 140.344Z" fill="#222222"/>
<path opacity="0.19" d="M190.483 149.41L224.567 116.084L216.543 106.31L181.423 141.208L190.483 149.41Z" fill="#304957"/>
<path d="M177.347 169.389C177.347 169.389 183.032 165.227 183.891 162.744L182.462 160.671C182.462 160.671 178.81 165.405 175.182 167.787L177.347 169.389Z" fill="#FF790D"/>
<path d="M237.801 111.614C237.801 111.614 243.487 107.454 244.346 104.971L242.916 102.897C242.916 102.897 239.265 107.632 235.639 110.012L237.801 111.614Z" fill="#FF790D"/>
<path d="M144.525 39.798C139.987 37.9822 135.344 36.4396 130.622 35.1784C124.566 33.57 116.161 32.5184 110.477 33.241C109.621 38.9115 110.484 47.3365 111.961 53.4235C113.099 58.1087 114.512 62.7229 116.192 67.2423C122.719 62.4965 133.066 53.8235 144.525 39.798Z" fill="#FFEDDF"/>
<path d="M144.525 39.7979C133.066 53.8235 122.719 62.4965 116.192 67.2422L118.268 72.6398C140.402 51.5119 141.408 48.0912 145.835 40.2437L144.525 39.7979Z" fill="#000100" fill-opacity="0.05"/>
<path d="M164.415 88.2702C170.83 81.8557 170.819 71.4455 164.392 65.0183C157.965 58.591 147.555 58.5807 141.14 64.9951C134.726 71.4096 134.736 81.8198 141.163 88.247C147.591 94.6743 158.001 94.6846 164.415 88.2702Z" fill="#ADCBDA"/>
<path opacity="0.2" d="M136.261 75.5747C136.882 71.3517 139.121 67.536 142.505 64.9339C145.888 62.3318 150.151 61.1472 154.392 61.6306C158.633 62.1139 162.52 64.2271 165.233 67.5238C167.945 70.8205 169.269 75.0423 168.926 79.297L136.261 75.5747Z" fill="white"/>
<path d="M165.385 88.8737C162.968 91.3717 159.864 93.0965 156.467 93.8299C153.069 94.5633 149.53 94.2723 146.298 92.9938C143.065 91.7152 140.284 89.5066 138.307 86.6473C136.33 83.788 135.245 80.4066 135.19 76.9311C135.136 73.4555 136.113 70.0419 137.999 67.1224C139.885 64.2028 142.594 61.9084 145.785 60.5296C148.976 59.1507 152.504 58.7494 155.923 59.3764C159.342 60.0034 162.498 61.6305 164.993 64.0518C168.332 67.2945 170.248 71.7292 170.322 76.3826C170.395 81.0361 168.62 85.5284 165.385 88.8737ZM141.772 65.9419C139.654 68.1159 138.229 70.8693 137.676 73.8539C137.124 76.8384 137.469 79.9199 138.668 82.7085C139.868 85.497 141.867 87.8673 144.414 89.5195C146.96 91.1716 149.94 92.0313 152.975 91.9898C156.01 91.9483 158.964 91.0075 161.464 89.2864C163.964 87.5653 165.897 85.1413 167.019 82.321C168.141 79.5007 168.4 76.4109 167.766 73.4426C167.131 70.4743 165.63 67.7608 163.452 65.6455C160.536 62.8139 156.615 61.2548 152.55 61.3103C148.486 61.3659 144.609 63.0315 141.772 65.9419Z" fill="#222222"/>
<rect x="206.039" y="152.243" width="110.67" height="110.67" transform="rotate(-45 206.039 152.243)" fill="#D9D9D9"/>
</g>
<defs>
<linearGradient id="paint0_linear_245_589" x1="310.635" y1="778.776" x2="-41.1998" y2="626.401" gradientUnits="userSpaceOnUse">
<stop stop-color="#0C87F1"/>
<stop offset="1" stop-color="#63CBF2"/>
</linearGradient>
<linearGradient id="paint1_linear_245_589" x1="179.495" y1="156.936" x2="165.064" y2="165.721" gradientUnits="userSpaceOnUse">
<stop stop-color="#0C87F1"/>
<stop offset="1" stop-color="#63CBF2"/>
</linearGradient>
<linearGradient id="paint2_linear_245_589" x1="239.287" y1="98.4704" x2="224.853" y2="107.256" gradientUnits="userSpaceOnUse">
<stop stop-color="#0C87F1"/>
<stop offset="1" stop-color="#63CBF2"/>
</linearGradient>
<linearGradient id="paint3_linear_245_589" x1="131.75" y1="55.5363" x2="162.81" y2="33.0012" gradientUnits="userSpaceOnUse">
<stop stop-color="#FF8D32"/>
<stop offset="1" stop-color="#FF790D"/>
</linearGradient>
<clipPath id="clip0_245_589">
<rect width="98.5971" height="151.719" fill="white" transform="translate(74 69.7186) rotate(-45)"/>
</clipPath>
</defs>
</svg>
