<svg width="55" height="55" viewBox="0 0 55 55" fill="none" xmlns="http://www.w3.org/2000/svg">
<path fill-rule="evenodd" clip-rule="evenodd" d="M20.0554 9.6066C22.5769 7.92178 25.6249 7.21108 28.6316 7.60691C31.6382 8.00275 34.3984 9.47812 36.398 11.7582C38.3975 14.0382 39.5 16.9674 39.5 20H38.5C38.5 17.21 37.4857 14.5151 35.6461 12.4175C33.8066 10.3199 31.2672 8.96253 28.501 8.59836C25.7349 8.23419 22.9307 8.88803 20.6109 10.4381C18.2911 11.9881 16.6139 14.3286 15.8918 17.0236C15.1697 19.7185 15.452 22.584 16.6859 25.0863C17.9199 27.5886 20.0215 29.5569 22.5991 30.6246C25.1767 31.6923 28.0546 31.7865 30.6965 30.8897C32.3731 30.3205 33.8821 29.3769 35.1176 28.1458L35.8235 28.8541C34.4806 30.1923 32.8404 31.218 31.018 31.8366C28.1463 32.8114 25.0182 32.709 22.2164 31.5485C19.4147 30.3879 17.1304 28.2484 15.7891 25.5286C14.4478 22.8087 14.141 19.694 14.9259 16.7647C15.7108 13.8355 17.5338 11.2914 20.0554 9.6066Z" fill="#222222"/>
<path fill-rule="evenodd" clip-rule="evenodd" d="M12.2057 50.1384L17.5476 38.7871L18.4524 39.2129L13.1106 50.5642C12.6526 51.5373 13.8077 52.4711 14.6633 51.8195C15.7297 51.0072 17.2768 51.4348 17.7747 52.6795L17.8162 52.7833C18.1586 53.6393 19.3337 53.7316 19.8055 52.9396L25.2523 43.7962C26.2496 42.122 28.6939 42.1819 29.608 43.9029L34.1902 52.5303C34.7469 53.5784 36.2425 53.5956 36.8231 52.5606L37.1732 51.9367C37.6735 51.0449 38.6665 50.5477 39.6803 50.6813L42.1297 51.0043L41.999 51.9957L39.5496 51.6727C38.9413 51.5925 38.3455 51.8909 38.0453 52.4259L37.6953 53.0499C36.7275 54.7748 34.2348 54.7461 33.3071 52.9994L28.7248 44.372C28.1764 43.3394 26.7098 43.3034 26.1114 44.3079L20.6646 53.4513C19.7688 54.9551 17.5378 54.7799 16.8878 53.1547L16.8462 53.0509C16.5939 52.42 15.8097 52.2033 15.2692 52.615C13.5813 53.9007 11.3023 52.0583 12.2057 50.1384Z" fill="#222222"/>
<path fill-rule="evenodd" clip-rule="evenodd" d="M31.237 4.87326L28.1838 2.01154C27.7992 1.65102 27.2008 1.65102 26.8161 2.01154L23.7629 4.87326C23.112 5.48335 22.2234 5.77209 21.3382 5.66111L17.186 5.14055C16.6629 5.07497 16.1788 5.42673 16.0795 5.94448L15.2915 10.0543C15.1235 10.9304 14.5743 11.6864 13.7929 12.1169L10.1278 14.1363C9.66602 14.3907 9.48109 14.9599 9.7051 15.4371L11.4833 19.2252C11.8624 20.0328 11.8624 20.9672 11.4833 21.7747L9.7051 25.5628C9.48109 26.04 9.66602 26.6092 10.1278 26.8636L13.7929 28.883C14.5743 29.3136 15.1235 30.0695 15.2915 30.9457L16.0795 35.0555C16.1788 35.5732 16.6629 35.925 17.186 35.8594L21.3382 35.3388C22.2234 35.2279 23.112 35.5166 23.7629 36.1267L26.8161 38.9884C27.2008 39.3489 27.7992 39.3489 28.1838 38.9884L31.237 36.1267C31.8879 35.5166 32.7766 35.2279 33.6618 35.3388L37.814 35.8594C38.337 35.925 38.8212 35.5732 38.9205 35.0555L39.7085 30.9457C39.8765 30.0695 40.4257 29.3136 41.2071 28.883L44.8722 26.8636C45.3339 26.6092 45.5189 26.04 45.2948 25.5628L43.5167 21.7747C43.1376 20.9672 43.1376 20.0328 43.5167 19.2252L45.2949 15.4371C45.5189 14.9599 45.3339 14.3907 44.8722 14.1363L41.2071 12.1169C40.4257 11.6864 39.8765 10.9304 39.7085 10.0543L38.9205 5.94448C38.8212 5.42673 38.337 5.07497 37.814 5.14055L33.6618 5.66111C32.7766 5.77209 31.8879 5.48334 31.237 4.87326ZM28.8677 1.28192C28.0984 0.560892 26.9015 0.560893 26.1323 1.28192L23.0791 4.14364C22.6451 4.55037 22.0527 4.74286 21.4626 4.66888L17.3104 4.14832C16.2642 4.01716 15.2959 4.72068 15.0974 5.75617L14.3094 9.86597C14.1974 10.4501 13.8312 10.954 13.3103 11.2411L9.64517 13.2605C8.72171 13.7693 8.35185 14.9076 8.79988 15.862L10.578 19.6501C10.8308 20.1885 10.8308 20.8114 10.578 21.3498L8.79988 25.1379C8.35185 26.0923 8.72172 27.2306 9.64517 27.7395L13.3103 29.7589C13.8312 30.0459 14.1974 30.5499 14.3094 31.134L15.0974 35.2438C15.2959 36.2793 16.2642 36.9828 17.3104 36.8516L21.4626 36.3311C22.0527 36.2571 22.6451 36.4496 23.0791 36.8563L26.1323 39.718C26.9015 40.4391 28.0984 40.4391 28.8677 39.718L31.9209 36.8563C32.3548 36.4496 32.9473 36.2571 33.5374 36.3311L37.6896 36.8516C38.7357 36.9828 39.704 36.2793 39.9026 35.2438L40.6906 31.134C40.8026 30.5499 41.1687 30.0459 41.6896 29.7589L45.3548 27.7395C46.2782 27.2306 46.6481 26.0923 46.2001 25.1379L44.4219 21.3498C44.1692 20.8114 44.1692 20.1885 44.4219 19.6501L46.2001 15.862C46.6481 14.9076 46.2782 13.7693 45.3548 13.2605L41.6896 11.2411C41.1687 10.954 40.8026 10.4501 40.6906 9.86597L39.9026 5.75617C39.704 4.72068 38.7357 4.01716 37.6896 4.14832L33.5374 4.66888C32.9473 4.74287 32.3548 4.55037 31.9209 4.14364L28.8677 1.28192Z" fill="#222222"/>
<path fill-rule="evenodd" clip-rule="evenodd" d="M32.3669 17.6603C32.5545 17.8629 32.5423 18.1792 32.3397 18.3669L26.6 23.6814L22.6603 20.0335C22.4577 19.8459 22.4455 19.5296 22.6331 19.3269C22.8207 19.1243 23.1371 19.1121 23.3397 19.2998L26.6 22.3186L31.6603 17.6331C31.8629 17.4455 32.1792 17.4576 32.3669 17.6603Z" fill="#222222"/>
</svg>
