<svg width="55" height="55" viewBox="0 0 55 55" fill="none" xmlns="http://www.w3.org/2000/svg">
<g filter="url(#filter0_b_230_393)">
<path fill-rule="evenodd" clip-rule="evenodd" d="M28 1.5C17.7866 1.5 9.5 9.84898 9.5 20.1566C9.5 27.5409 13.7536 33.9221 19.9235 36.9463C20.2121 37.081 20.8433 37.4853 21.1646 38.1333C21.3234 38.4535 21.4127 38.829 21.4637 39.1461C21.5154 39.468 21.5333 39.7659 21.5333 39.9518V47.5506H20.5333V39.9518C20.5333 39.8184 20.5196 39.5736 20.4763 39.3049C20.4323 39.0312 20.3633 38.7682 20.2687 38.5776C20.0855 38.2082 19.674 37.9325 19.4986 37.8516L19.4882 37.8467C12.9831 34.6605 8.5 27.9356 8.5 20.1566C8.5 9.30445 17.2266 0.5 28 0.5C38.7734 0.5 47.5 9.30445 47.5 20.1566C47.5 27.9356 43.0168 34.6604 36.5118 37.8466L36.5028 37.851C36.3297 37.9315 35.9178 38.2077 35.7298 38.5806C35.6343 38.7699 35.565 39.0315 35.5214 39.3043C35.4786 39.5723 35.4659 39.8163 35.4667 39.949L35.4667 39.9518L35.4667 47.5506H34.4667V39.9532C34.4657 39.7665 34.4825 39.4685 34.534 39.1466C34.5847 38.8288 34.6747 38.4518 34.8369 38.1302C35.1623 37.4852 35.7891 37.0813 36.076 36.9466C42.2462 33.9225 46.5 27.5411 46.5 20.1566C46.5 9.84898 38.2134 1.5 28 1.5ZM25.8716 15.2476C28.0897 15.0656 30.7383 15.2246 32.5117 15.5062L32.3549 16.4938C30.6506 16.2232 28.0826 16.0695 25.9534 16.2443C24.884 16.332 23.9645 16.4998 23.3273 16.7554C22.6567 17.0244 22.5 17.2992 22.5 17.5C22.5 17.7072 22.6647 17.9903 23.3389 18.2807C23.9792 18.5564 24.9008 18.7537 25.9723 18.8827C28.1045 19.1394 30.6797 19.1094 32.4019 19.001L33.0491 18.9603L28.9906 39.5965L28.0094 39.4035L31.8187 20.034C30.1009 20.113 27.8103 20.1112 25.8527 19.8755C24.7506 19.7428 23.716 19.5318 22.9434 19.1991C22.2047 18.881 21.5 18.3555 21.5 17.5C21.5 16.6382 22.2127 16.1251 22.955 15.8273C23.7306 15.5161 24.7674 15.3382 25.8716 15.2476ZM24.6441 43.4656C25.0809 43.6611 25.6445 43.7771 26.1 43.7771H29.9C30.3555 43.7771 30.9191 43.6611 31.3559 43.4656C31.574 43.3679 31.7339 43.2622 31.8319 43.1644C31.9288 43.0678 31.9333 43.0134 31.9333 43H32.9333C32.9333 43.3645 32.7524 43.6586 32.5382 43.8723C32.3252 44.0849 32.0485 44.2511 31.7645 44.3783C31.1969 44.6324 30.4938 44.7771 29.9 44.7771H26.1C25.5062 44.7771 24.8031 44.6324 24.2355 44.3783C23.9515 44.2511 23.6748 44.0849 23.4618 43.8723C23.2476 43.6586 23.0667 43.3645 23.0667 43H24.0667C24.0667 43.0134 24.0712 43.0678 24.1681 43.1644C24.2661 43.2622 24.426 43.3679 24.6441 43.4656ZM24.6441 46.7391C25.0809 46.9346 25.6445 47.0506 26.1 47.0506H29.9C30.3555 47.0506 30.9191 46.9346 31.3559 46.7391C31.574 46.6414 31.7339 46.5357 31.8319 46.4379C31.9288 46.3413 31.9333 46.2869 31.9333 46.2735H32.9333C32.9333 46.638 32.7524 46.9321 32.5382 47.1458C32.3252 47.3584 32.0485 47.5246 31.7645 47.6518C31.1969 47.9059 30.4938 48.0506 29.9 48.0506H26.1C25.5062 48.0506 24.8031 47.9059 24.2355 47.6518C23.9515 47.5246 23.6748 47.3584 23.4618 47.1458C23.2476 46.9321 23.0667 46.638 23.0667 46.2735H24.0667C24.0667 46.2869 24.0712 46.3413 24.1681 46.4379C24.2661 46.5357 24.426 46.6414 24.6441 46.7391ZM24.6441 53.1885C25.0809 53.384 25.6445 53.5 26.1 53.5H29.9C30.3555 53.5 30.9191 53.384 31.3559 53.1885C31.574 53.0908 31.7339 52.9851 31.8319 52.8873C31.9288 52.7907 31.9333 52.7363 31.9333 52.7229H32.9333C32.9333 53.0874 32.7524 53.3815 32.5382 53.5952C32.3252 53.8078 32.0485 53.974 31.7645 54.1012C31.1969 54.3553 30.4938 54.5 29.9 54.5H26.1C25.5062 54.5 24.8031 54.3553 24.2355 54.1012C23.9515 53.974 23.6748 53.8078 23.4618 53.5952C23.2476 53.3815 23.0667 53.0874 23.0667 52.7229H24.0667C24.0667 52.7363 24.0712 52.7907 24.1681 52.8873C24.2661 52.9851 24.426 53.0908 24.6441 53.1885Z" fill="#222222"/>
</g>
<defs>
<filter id="filter0_b_230_393" x="1.5" y="-6.5" width="53" height="68" filterUnits="userSpaceOnUse" color-interpolation-filters="sRGB">
<feFlood flood-opacity="0" result="BackgroundImageFix"/>
<feGaussianBlur in="BackgroundImageFix" stdDeviation="3.5"/>
<feComposite in2="SourceAlpha" operator="in" result="effect1_backgroundBlur_230_393"/>
<feBlend mode="normal" in="SourceGraphic" in2="effect1_backgroundBlur_230_393" result="shape"/>
</filter>
</defs>
</svg>
