<svg width="55" height="55" viewBox="0 0 55 55" fill="none" xmlns="http://www.w3.org/2000/svg">
<path fill-rule="evenodd" clip-rule="evenodd" d="M36.3331 8.07841C35.0751 6.37839 33.5629 5.5 32.4286 5.5L22.5714 5.5C21.4371 5.5 19.9249 6.37839 18.6669 8.0784C17.4271 9.75383 16.5 12.1499 16.5 15H15.5C15.5 11.9328 16.4976 9.3288 17.863 7.48357C19.2103 5.66293 20.9838 4.5 22.5714 4.5L32.4286 4.5C34.0162 4.5 35.7897 5.66293 37.137 7.48357C38.5024 9.3288 39.5 11.9328 39.5 15L38.5 15C38.5 12.1499 37.5729 9.75383 36.3331 8.07841Z" fill="#222222"/>
<path fill-rule="evenodd" clip-rule="evenodd" d="M33.1332 9.98197C32.3359 8.99069 31.3934 8.5 30.7143 8.5L24.2857 8.5C23.6066 8.5 22.6641 8.99069 21.8668 9.98197C21.0852 10.9536 20.5 12.3442 20.5 14H19.5C19.5 12.1054 20.17 10.4959 21.0875 9.35522C21.9893 8.2341 23.1896 7.5 24.2857 7.5L30.7143 7.5C31.8104 7.5 33.0107 8.2341 33.9125 9.35522C34.83 10.496 35.5 12.1054 35.5 14L34.5 14C34.5 12.3442 33.9148 10.9536 33.1332 9.98197Z" fill="#222222"/>
<path fill-rule="evenodd" clip-rule="evenodd" d="M51 17H4C3.44772 17 3 17.4477 3 18V48C3 48.5523 3.44772 49 4 49H51C51.5523 49 52 48.5523 52 48V18C52 17.4477 51.5523 17 51 17ZM4 16C2.89543 16 2 16.8954 2 18V48C2 49.1046 2.89543 50 4 50H51C52.1046 50 53 49.1046 53 48V18C53 16.8954 52.1046 16 51 16H4Z" fill="#222222"/>
<path fill-rule="evenodd" clip-rule="evenodd" d="M13.6444 19.5H47C48.3807 19.5 49.5 20.6193 49.5 22V25.5352C49.5 26.5008 48.944 27.38 48.0716 27.7939L28.5716 37.045C27.8934 37.3668 27.1066 37.3668 26.4284 37.045L6.92843 27.7939C6.05605 27.38 5.5 26.5008 5.5 25.5352V20H6.5V25.5352C6.5 26.1145 6.83363 26.6421 7.35706 26.8904L26.8571 36.1416C27.264 36.3346 27.736 36.3346 28.1429 36.1416L47.6429 26.8904C48.1664 26.6421 48.5 26.1145 48.5 25.5352V22C48.5 21.1716 47.8284 20.5 47 20.5H13.6444V19.5Z" fill="#222222"/>
<path d="M29 41.5C29 42.3284 28.3284 43 27.5 43C26.6716 43 26 42.3284 26 41.5C26 40.6716 26.6716 40 27.5 40C28.3284 40 29 40.6716 29 41.5Z" fill="#222222"/>
<path fill-rule="evenodd" clip-rule="evenodd" d="M23.5 38V43C23.5 43.8284 24.1716 44.5 25 44.5H30C30.8284 44.5 31.5 43.8284 31.5 43V38H32.5V43C32.5 44.3807 31.3807 45.5 30 45.5H25C23.6193 45.5 22.5 44.3807 22.5 43V38H23.5Z" fill="#222222"/>
</svg>
