<svg width="413" height="1147" viewBox="0 0 413 1147" fill="none" xmlns="http://www.w3.org/2000/svg">
<path opacity="0.75" d="M324.745 441.5C219.253 472.904 137.667 456.741 0 519V1147C0 1147 31.4177 1115.87 202.216 1117.66C373.014 1119.46 413 1087.13 413 1087.13C413 817.948 412.429 206.463 412.429 206.463C361.018 166.354 349.022 206.463 245.113 146C239.376 154.562 242.544 216.187 324.745 261.846C405.839 306.89 389.182 422.318 324.745 441.5Z" fill="url(#paint0_linear_247_617)" fill-opacity="0.3"/>
<g clip-path="url(#clip0_247_617)">
<path d="M202.347 176.385C202.788 175.953 204.597 143.105 204.597 143.105L174.871 113.312L174.08 151.608L202.347 176.385Z" fill="#FFEDDF"/>
<path d="M193.634 163.048C187.356 157.395 171.168 143.811 160.82 142.115C162.328 152.281 175.817 168.454 181.441 174.735C183.335 176.859 185.455 178.78 187.765 180.464L206.014 193.654C209.128 194.082 212.759 190.615 212.388 187.547L199.334 169.376C197.67 167.074 195.759 164.952 193.634 163.048V163.048Z" fill="url(#paint1_linear_247_617)"/>
<path d="M204.821 187.861C203.801 188.795 202.714 189.656 201.569 190.437L205.951 193.615C209.065 194.042 212.696 190.575 212.325 187.507L209.066 182.969C208.008 184.836 206.41 186.442 204.821 187.861Z" fill="#222222"/>
<path opacity="0.12" d="M174.476 132.459L203.88 155.598L203.455 162.554L174.427 134.774L174.476 132.459Z" fill="#222222"/>
<path d="M263.44 117.845C263 118.276 229.432 119.308 229.432 119.308L199.707 89.516L238.804 89.589L263.44 117.845Z" fill="#FFEDDF"/>
<path d="M250.035 109.002C244.41 102.724 230.922 86.5517 229.414 76.3819C239.754 78.0862 255.95 91.6655 262.228 97.3154C264.354 99.2177 266.266 101.338 267.932 103.639L280.985 121.808C281.358 124.875 277.733 128.347 274.62 127.906L256.357 114.733C254.047 113.049 251.928 111.128 250.035 109.002V109.002Z" fill="url(#paint2_linear_247_617)"/>
<path d="M275.105 120.512C276.082 119.532 276.986 118.485 277.811 117.379L280.951 121.752C281.322 124.821 277.698 128.294 274.577 127.86L270.022 124.567C271.938 123.569 273.616 122.044 275.105 120.512Z" fill="#222222"/>
<path opacity="0.12" d="M219.262 89.5445L242.207 118.872L249.313 118.612L221.623 89.5495L219.262 89.5445Z" fill="#222222"/>
<path d="M226.843 157.374L231.585 162.125L251.522 143.019L246.78 138.267L226.843 157.374Z" fill="#FFEDDF"/>
<path d="M257.764 145.609L233.832 168.54L230.538 162.401L251.574 142.244L257.764 145.609Z" fill="#5E889F"/>
<path d="M198.322 64.3261C183.598 52.7207 166.185 44.3195 147.954 39.5557C141.011 37.7426 131.368 36.5604 124.848 37.3727C123.866 43.748 124.856 53.2202 126.549 60.0639C131.004 78.0294 139.181 95.2789 150.686 109.97C162.925 125.589 179.537 136.347 194.587 149.075L216.776 167.841L236.327 149.107L255.887 130.368C249.667 122.986 243.451 115.604 237.24 108.223C224.585 93.1827 213.992 76.659 198.322 64.3261Z" fill="url(#paint3_linear_247_617)"/>
<path d="M261.098 145.078L233.481 171.541C233.447 171.574 233.406 171.601 233.362 171.618C233.317 171.636 233.269 171.645 233.221 171.644C233.173 171.643 233.126 171.633 233.082 171.615C233.038 171.596 232.998 171.569 232.965 171.535L231.799 170.368C231.732 170.3 231.695 170.209 231.695 170.114C231.696 170.02 231.735 169.93 231.804 169.863L259.422 143.398C259.457 143.365 259.497 143.339 259.542 143.322C259.586 143.304 259.634 143.296 259.682 143.296C259.73 143.297 259.777 143.307 259.821 143.325C259.865 143.344 259.905 143.371 259.939 143.404L261.104 144.571C261.138 144.605 261.164 144.645 261.182 144.689C261.2 144.732 261.209 144.779 261.208 144.826C261.207 144.873 261.197 144.919 261.178 144.962C261.16 145.006 261.132 145.045 261.098 145.078V145.078Z" fill="#222222"/>
<path opacity="0.15" d="M227.27 157.787L247.209 138.684L250.369 141.85L228.156 158.675L227.27 157.787Z" fill="#222222"/>
<path opacity="0.19" d="M216.632 167.981L255.734 130.512L246.529 119.524L206.238 158.76L216.632 167.981Z" fill="#304957"/>
<path d="M201.562 190.443C201.562 190.443 208.084 185.764 209.069 182.972L207.43 180.641C207.43 180.641 203.24 185.964 199.079 188.642L201.562 190.443Z" fill="#FF790D"/>
<path d="M270.916 125.487C270.916 125.487 277.439 120.81 278.425 118.018L276.785 115.687C276.785 115.687 272.596 121.01 268.436 123.686L270.916 125.487Z" fill="#FF790D"/>
<path d="M163.908 44.7447C158.702 42.7033 153.376 40.969 147.958 39.551C141.01 37.7427 131.368 36.5604 124.848 37.3728C123.866 43.748 124.856 53.2202 126.549 60.0639C127.855 65.3313 129.476 70.5191 131.403 75.6002C138.891 70.2646 150.762 60.5135 163.908 44.7447Z" fill="#FFEDDF"/>
<path d="M163.908 44.7447C150.762 60.5135 138.891 70.2645 131.403 75.6002L133.785 81.6686C159.178 57.9146 160.332 54.0687 165.411 45.2458L163.908 44.7447Z" fill="#000100" fill-opacity="0.05"/>
<path d="M186.726 99.2416C194.085 92.0299 194.073 80.3257 186.7 73.0996C179.326 65.8735 167.384 65.8619 160.025 73.0736C152.666 80.2853 152.678 91.9895 160.051 99.2156C167.425 106.442 179.368 106.453 186.726 99.2416Z" fill="#ADCBDA"/>
<path opacity="0.2" d="M154.427 84.9682C155.14 80.2203 157.709 75.9303 161.59 73.0048C165.471 70.0793 170.362 68.7475 175.227 69.2909C180.093 69.8342 184.553 72.2102 187.664 75.9166C190.776 79.6231 192.295 84.3696 191.901 89.1531L154.427 84.9682Z" fill="white"/>
<path d="M187.838 99.9202C185.066 102.729 181.506 104.668 177.608 105.492C173.71 106.317 169.65 105.99 165.941 104.552C162.233 103.115 159.043 100.632 156.775 97.417C154.506 94.2023 153.262 90.4007 153.199 86.4931C153.136 82.5856 154.257 78.7477 156.421 75.4653C158.585 72.1828 161.693 69.6032 165.354 68.053C169.014 66.5028 173.061 66.0516 176.984 66.7565C180.906 67.4615 184.527 69.2908 187.389 72.0131C191.22 75.6589 193.418 80.6447 193.502 85.8765C193.587 91.1084 191.55 96.159 187.838 99.9202V99.9202ZM160.75 74.138C158.32 76.5822 156.685 79.678 156.051 83.0335C155.417 86.389 155.813 89.8535 157.189 92.9886C158.565 96.1238 160.859 98.7887 163.78 100.646C166.702 102.504 170.12 103.47 173.602 103.424C177.084 103.377 180.473 102.319 183.341 100.384C186.209 98.4492 188.427 95.7238 189.713 92.553C191 89.3822 191.298 85.9084 190.57 82.5711C189.842 79.2338 188.12 76.1831 185.622 73.8049C182.276 70.6212 177.777 68.8683 173.115 68.9308C168.452 68.9933 164.005 70.866 160.75 74.138Z" fill="#222222"/>
<rect width="125.701" height="125.701" transform="matrix(0.714208 -0.699934 0.714208 0.699934 234.478 171.166)" fill="#D9D9D9"/>
</g>
<defs>
<linearGradient id="paint0_linear_247_617" x1="356.368" y1="925.218" x2="-52.5618" y2="755.534" gradientUnits="userSpaceOnUse">
<stop stop-color="#0C87F1"/>
<stop offset="1" stop-color="#63CBF2"/>
</linearGradient>
<linearGradient id="paint1_linear_247_617" x1="204.026" y1="176.442" x2="187.653" y2="186.612" gradientUnits="userSpaceOnUse">
<stop stop-color="#0C87F1"/>
<stop offset="1" stop-color="#63CBF2"/>
</linearGradient>
<linearGradient id="paint2_linear_247_617" x1="272.621" y1="110.71" x2="256.245" y2="120.881" gradientUnits="userSpaceOnUse">
<stop stop-color="#0C87F1"/>
<stop offset="1" stop-color="#63CBF2"/>
</linearGradient>
<linearGradient id="paint3_linear_247_617" x1="149.252" y1="62.4392" x2="184.386" y2="36.4288" gradientUnits="userSpaceOnUse">
<stop stop-color="#FF8D32"/>
<stop offset="1" stop-color="#FF790D"/>
</linearGradient>
<clipPath id="clip0_247_617">
<rect width="111.988" height="172.325" fill="white" transform="matrix(0.714208 -0.699934 0.714208 0.699934 83 78.3843)"/>
</clipPath>
</defs>
</svg>
